<?xml version="1.0" standalone="no"?>
<!DOCTYPE svg PUBLIC "-//W3C//DTD SVG 20010904//EN"
 "http://www.w3.org/TR/2001/REC-SVG-20010904/DTD/svg10.dtd">
<svg version="1.0" xmlns="http://www.w3.org/2000/svg"
 width="1280.000000pt" height="640.000000pt" viewBox="0 0 1280.000000 640.000000"
 preserveAspectRatio="xMidYMid meet">
<metadata>
Created by potrace 1.15, written by Peter Selinger 2001-2017
</metadata>
<g transform="translate(0.000000,640.000000) scale(0.100000,-0.100000)"
fill="#ff5722" stroke="none">
<path d="M4715 5799 c-81 -11 -164 -48 -199 -90 -14 -16 -27 -29 -31 -29 -3 0
-16 12 -29 26 l-22 27 -13 -34 c-33 -87 -53 -101 -112 -80 -41 14 -152 14
-202 0 -26 -7 -44 -20 -55 -40 -14 -23 -24 -29 -52 -29 -26 0 -43 -9 -75 -39
-49 -49 -151 -111 -181 -111 -31 0 -55 -10 -48 -21 3 -5 13 -9 23 -9 9 0 41
-15 71 -34 53 -34 56 -34 75 -17 18 16 31 17 110 10 101 -9 218 -40 246 -65 9
-8 20 -35 24 -57 12 -80 13 -80 45 -57 15 11 35 20 43 20 22 0 81 -70 69 -82
-15 -15 -32 0 -32 27 0 26 -15 34 -49 26 -35 -9 -44 -44 -20 -74 13 -18 17
-34 13 -55 -5 -23 0 -36 23 -63 16 -19 40 -50 54 -69 35 -47 133 -114 158
-107 11 3 28 -1 38 -9 44 -33 103 -3 103 53 0 15 9 27 25 35 16 7 25 19 25 33
0 33 16 41 115 61 66 13 96 24 112 40 12 13 32 25 45 28 12 3 77 16 144 30 66
14 123 26 127 26 18 0 3 20 -33 44 -41 27 -45 46 -10 46 10 0 28 -13 40 -30
23 -32 50 -39 69 -16 9 11 8 23 -4 52 -19 47 -11 57 51 60 26 2 50 6 54 11 4
4 12 35 19 67 9 51 9 60 -5 70 -34 26 -12 58 100 145 99 77 107 85 91 97 -42
31 -83 28 -144 -10 -98 -60 -119 -50 -176 88 -16 37 -35 70 -42 73 -10 4 -197
-17 -378 -44 -22 -3 -37 -2 -34 1 4 4 57 15 119 26 114 20 134 26 109 34 -79
26 -253 33 -394 15z"/>
<path d="M2536 5437 c-18 -13 -17 -15 14 -25 18 -7 46 -12 62 -12 16 0 45 -7
65 -15 46 -19 53 -19 53 4 0 29 -47 53 -114 58 -43 3 -66 1 -80 -10z"/>
<path d="M2278 5417 c-65 -28 -63 -45 5 -41 28 2 56 3 60 4 12 0 4 53 -8 56
-5 1 -31 -7 -57 -19z"/>
<path d="M2800 5406 c0 -22 90 -71 200 -108 91 -31 102 -33 252 -33 86 0 160
3 164 8 22 22 -25 32 -179 37 l-162 5 -115 47 c-151 61 -160 63 -160 44z"/>
<path d="M1991 5370 c-51 -17 -101 -53 -90 -65 3 -3 43 0 88 6 72 10 85 9 99
-5 9 -8 12 -19 8 -23 -4 -5 -61 -11 -127 -14 -95 -5 -123 -10 -139 -24 -11
-10 -20 -24 -20 -31 0 -7 -9 -19 -20 -27 -19 -13 -15 -16 59 -37 l80 -23 39
21 39 20 49 -49 c26 -27 45 -49 42 -49 -4 0 -45 9 -93 21 -58 13 -116 20 -173
19 -48 -1 -96 1 -106 6 -31 12 -270 -12 -311 -32 -32 -15 -42 -16 -69 -5 -51
21 -325 51 -466 51 -35 0 -104 10 -152 22 -85 20 -89 21 -108 3 -11 -10 -45
-22 -76 -26 -31 -4 -92 -22 -135 -39 -92 -37 -92 -48 0 -74 53 -15 102 -48 89
-62 -3 -3 -32 4 -64 15 -56 20 -60 20 -116 5 -33 -10 -57 -22 -55 -28 2 -6 21
-21 43 -34 35 -21 48 -23 118 -18 92 6 90 -2 -9 -37 -84 -30 -97 -46 -69 -84
16 -21 29 -28 55 -27 19 0 41 4 50 8 12 5 19 -1 29 -24 9 -21 18 -29 28 -25 9
3 40 1 69 -5 70 -15 63 -23 -72 -85 -58 -26 -105 -52 -105 -56 0 -18 49 -8
171 35 117 41 128 43 168 33 40 -11 44 -10 62 12 24 30 24 37 -1 44 -20 5 -19
8 12 52 l33 47 3 -35 3 -35 62 25 c34 14 74 30 88 36 20 8 45 5 120 -16 52
-14 125 -31 164 -38 64 -11 74 -16 117 -61 25 -26 53 -48 61 -48 26 0 47 -29
47 -64 0 -33 15 -53 58 -76 32 -16 35 -10 18 41 -8 24 -14 44 -13 46 2 1 23
-15 48 -37 29 -24 52 -56 63 -84 14 -37 27 -50 71 -75 78 -44 80 -49 75 -208
-2 -73 1 -88 28 -145 36 -76 108 -161 167 -199 31 -20 58 -52 100 -120 57 -92
57 -93 41 -121 l-17 -28 30 6 c28 6 38 -1 105 -66 69 -66 96 -79 96 -46 0 8
-11 21 -25 30 -14 9 -34 36 -45 59 -11 23 -45 71 -75 106 -31 35 -54 68 -52
74 8 26 28 14 68 -40 24 -32 89 -106 146 -164 87 -91 103 -113 109 -148 6 -39
41 -81 65 -81 5 0 40 -20 77 -45 37 -24 83 -48 102 -51 19 -4 46 -14 58 -22
22 -14 27 -14 58 3 34 18 35 18 62 -3 67 -55 102 -73 157 -83 67 -12 88 -27
117 -82 13 -27 42 -53 95 -88 83 -54 106 -59 125 -29 7 11 21 20 30 20 25 0
68 -79 68 -124 0 -47 -32 -109 -69 -137 -38 -28 -54 -67 -46 -112 5 -23 2 -45
-9 -65 -23 -45 -20 -69 13 -88 30 -18 79 -98 143 -235 35 -75 37 -78 119 -125
112 -65 125 -91 110 -206 -6 -45 -11 -105 -11 -133 0 -32 -8 -71 -22 -101 -12
-28 -23 -73 -24 -104 -1 -37 -12 -77 -33 -123 -28 -62 -31 -79 -34 -190 -3
-119 -4 -123 -35 -166 -25 -35 -29 -47 -21 -62 7 -14 6 -30 -2 -54 -10 -27
-10 -37 1 -50 7 -8 14 -30 15 -47 4 -45 54 -109 115 -145 63 -39 126 -43 206
-16 l49 17 -31 6 c-53 12 -134 81 -134 116 0 7 21 29 48 49 60 46 91 93 71
106 -8 5 -25 9 -38 9 -21 0 -16 8 45 76 l68 77 -27 21 c-39 31 -34 39 23 31
l50 -7 0 30 c0 35 13 42 82 42 44 0 54 4 84 34 41 41 44 74 9 135 -27 47 -29
51 -17 51 4 0 13 -13 19 -30 33 -86 150 -43 213 79 10 20 32 44 48 54 45 26
75 80 67 118 -5 22 -2 36 12 51 23 27 131 78 163 78 32 0 84 32 105 63 22 34
54 150 61 224 6 58 10 67 57 115 53 55 97 136 97 178 0 14 -7 36 -16 48 -21
31 -160 99 -239 117 -36 9 -92 29 -125 46 -68 34 -89 32 -120 -12 -13 -18 -30
-29 -43 -28 -12 0 -16 3 -9 6 13 5 42 55 42 73 0 15 -32 12 -68 -6 -18 -8 -40
-14 -50 -12 -12 2 -4 11 28 28 59 33 62 57 15 114 -58 71 -102 96 -167 96 -52
0 -57 2 -82 35 -17 22 -44 41 -76 52 l-49 17 15 34 c19 47 17 62 -5 33 -18
-23 -20 -24 -42 -10 -42 27 -57 29 -83 8 -24 -19 -27 -19 -51 -3 -16 10 -34
14 -51 10 -20 -5 -33 -1 -51 16 -30 28 -49 18 -78 -38 -26 -50 -24 -48 -30
-42 -3 3 -1 33 3 66 5 34 7 62 5 62 -20 0 -107 -58 -143 -94 -24 -25 -48 -46
-52 -46 -5 0 -22 10 -39 22 -29 22 -31 22 -78 5 -63 -22 -77 -22 -95 5 -12 16
-16 47 -16 110 0 83 -1 88 -25 104 -20 13 -40 16 -90 11 -76 -6 -76 -6 -39 88
17 42 24 74 20 90 -6 23 -11 25 -60 25 -58 0 -86 -16 -86 -50 0 -25 -35 -47
-85 -55 -35 -5 -45 -2 -78 25 -66 56 -72 78 -63 239 3 55 3 55 61 93 60 39
111 48 160 29 13 -6 33 -2 57 10 59 30 122 35 169 14 30 -14 50 -35 86 -92 50
-79 71 -88 84 -39 6 22 2 46 -16 91 -14 34 -25 69 -25 77 0 19 26 41 133 117
l76 54 -15 35 c-19 46 -18 48 14 47 20 0 28 5 30 22 2 12 21 38 43 57 32 30
47 36 83 36 l44 0 -5 43 c-5 41 -3 44 23 54 96 37 114 37 114 3 0 -31 16 -32
87 -7 38 14 87 28 111 32 45 7 51 18 27 52 -13 19 -19 21 -40 11 -20 -9 -28
-8 -43 5 -10 10 -31 17 -45 17 -23 0 -27 4 -27 29 0 48 -21 56 -90 33 -33 -12
-60 -18 -59 -14 1 15 62 55 97 63 69 16 82 12 82 -21 0 -16 2 -30 5 -30 3 0
50 23 105 50 55 28 102 50 105 50 14 0 2 -36 -26 -76 -47 -68 -38 -75 83 -72
97 3 103 4 100 23 -6 32 -31 53 -84 71 l-49 16 26 44 c14 24 23 49 20 54 -3 5
-47 34 -98 65 -65 39 -111 76 -155 125 -35 38 -67 70 -72 70 -5 0 -25 -13 -43
-30 -19 -17 -46 -30 -60 -30 -27 0 -57 32 -57 61 0 11 -15 20 -47 28 -25 7
-59 19 -75 27 -38 20 -150 23 -171 6 -9 -7 -20 -36 -26 -64 -11 -47 -10 -52
14 -80 45 -53 29 -92 -34 -86 -22 2 -41 3 -41 2 0 -1 7 -18 15 -37 8 -20 15
-50 15 -67 0 -28 -3 -30 -35 -30 -34 0 -35 1 -35 36 0 31 -2 35 -15 24 -13
-11 -17 -8 -26 19 -13 36 -35 51 -75 51 -61 0 -269 62 -320 96 -66 43 -72 59
-35 93 67 62 139 104 191 109 40 4 50 8 50 23 0 23 8 24 31 3 14 -13 16 -21 8
-36 -9 -17 -7 -18 18 -12 15 4 38 11 51 15 36 14 69 11 76 -6 6 -16 51 -21 60
-6 3 4 -3 16 -13 25 -25 22 -135 66 -167 66 -52 0 -15 12 62 21 97 11 115 25
79 62 l-27 26 39 10 c84 21 101 22 137 7 38 -16 46 -36 21 -56 -23 -19 -18
-30 15 -30 19 0 40 9 54 23 20 20 26 21 51 11 l28 -11 -24 -13 c-13 -7 -36
-24 -51 -38 -23 -21 -33 -24 -66 -18 -45 7 -68 -10 -57 -43 5 -17 15 -19 88
-18 70 0 93 -4 158 -30 95 -40 144 -49 164 -33 9 8 28 10 50 6 32 -6 35 -5 35
18 0 18 -12 33 -45 56 -25 17 -45 36 -45 41 0 11 13 8 92 -19 45 -16 48 -16
75 4 14 11 29 26 31 32 5 15 -111 70 -158 76 -19 2 -38 4 -41 5 -4 0 -10 13
-14 28 -11 44 -21 50 -122 74 -53 12 -124 34 -158 49 -77 35 -134 42 -255 32
-74 -5 -95 -10 -95 -22 -1 -45 -45 -56 -45 -11 0 48 -22 57 -86 37 -73 -23
-90 -54 -51 -94 23 -22 37 -27 97 -30 85 -5 89 -17 23 -67 l-48 -37 -5 34 c-5
32 -7 33 -45 31 -34 -3 -45 2 -80 37 -40 39 -107 75 -118 63 -4 -3 -2 -13 3
-23 5 -10 14 -37 19 -61 12 -52 2 -69 -40 -69 -26 0 -29 4 -35 40 -6 39 -8 40
-46 40 -34 0 -39 -3 -33 -17 14 -34 10 -47 -15 -54 -32 -9 -154 -11 -203 -3
-52 9 -32 31 38 39 33 5 62 15 76 28 25 24 26 23 -61 49 -42 12 -45 16 -48 51
-3 35 -5 37 -38 37 -39 0 -39 -1 -19 47 18 43 7 63 -30 55 -14 -2 -36 3 -51
13 -23 15 -27 15 -43 1 -27 -25 -73 -30 -115 -12 -21 9 -49 16 -62 16 -13 0
-41 9 -61 20 -45 24 -71 24 -142 0z m214 -100 c16 -17 31 -20 115 -20 104 0
110 -3 110 -52 0 -21 0 -21 -21 -2 -17 15 -34 18 -92 17 -52 -2 -91 4 -142 20
l-70 23 30 17 c39 21 48 21 70 -3z m-377 -874 c37 -19 64 -51 60 -71 -2 -12
-16 -3 -53 35 -51 52 -53 60 -7 36z m1402 -28 c40 -23 50 -42 28 -50 -23 -8
-213 -2 -211 7 2 12 104 64 126 65 10 0 36 -10 57 -22z m143 -95 c25 -4 44
-14 54 -30 17 -26 10 -44 -9 -25 -19 19 -28 14 -28 -17 0 -31 -22 -57 -40 -46
-5 3 -10 19 -10 35 0 16 -7 36 -16 44 -40 41 -101 -2 -113 -82 -4 -29 -11 -56
-15 -59 -14 -14 -26 24 -26 85 0 85 17 102 103 102 34 0 79 -3 100 -7z m197
-88 c0 -3 -45 -28 -101 -55 -70 -36 -97 -45 -90 -33 13 25 50 57 86 76 28 15
105 24 105 12z"/>
<path d="M9945 5355 c-55 -26 -101 -30 -158 -14 -31 8 -50 7 -100 -10 -34 -10
-91 -21 -127 -24 -39 -3 -91 -15 -130 -32 -45 -18 -91 -28 -147 -32 -46 -3
-83 -10 -83 -14 0 -5 19 -18 43 -30 55 -28 77 -48 77 -71 0 -26 -13 -23 -62
18 -42 37 -111 73 -136 74 -7 0 -22 -16 -33 -35 -26 -44 -55 -46 -64 -5 -7 33
-14 37 -33 18 -12 -12 -18 -138 -7 -138 3 0 24 9 47 21 51 26 82 19 97 -22 10
-30 10 -31 -12 -24 -12 3 -41 9 -65 12 -38 5 -47 2 -75 -24 -40 -37 -105 -75
-111 -64 -3 4 12 24 33 45 37 37 37 37 35 114 -1 75 -2 78 -34 100 -18 12 -42
22 -52 22 -18 0 -129 -82 -136 -101 -2 -5 14 -24 34 -43 21 -19 36 -37 34 -39
-3 -3 -63 6 -134 19 l-129 24 -44 -25 c-35 -21 -47 -24 -64 -14 -15 8 -33 8
-63 0 -22 -5 -84 -12 -136 -15 -135 -8 -196 -20 -220 -41 l-21 -19 3 39 c3 39
2 40 -31 43 -42 4 -50 -7 -43 -65 5 -43 4 -45 -16 -34 -43 23 -82 14 -121 -29
-35 -38 -39 -40 -66 -30 -27 10 -51 9 -88 -6 -10 -3 -18 5 -26 27 -16 47 -15
48 31 37 27 -6 59 -5 90 2 46 9 108 35 108 45 0 6 -78 28 -270 77 -154 39
-174 42 -300 42 -118 -1 -149 -4 -247 -31 -109 -30 -113 -32 -185 -97 -76 -70
-141 -112 -218 -142 -73 -28 -83 -41 -78 -102 6 -63 28 -90 82 -99 33 -5 41
-2 71 27 19 19 36 32 38 29 1 -2 9 -26 15 -54 19 -75 29 -82 104 -66 35 7 69
17 75 23 14 11 93 125 93 133 0 2 -16 15 -36 29 l-35 24 23 16 c13 9 41 21 63
27 49 13 85 45 85 76 0 22 4 23 66 23 36 0 63 -4 60 -9 -3 -5 -35 -26 -71 -47
-35 -21 -67 -44 -70 -51 -6 -17 18 -78 35 -88 6 -4 54 -2 106 5 84 11 96 11
119 -4 38 -25 30 -36 -24 -36 -26 0 -76 -3 -110 -6 l-62 -7 22 -23 22 -24 -42
0 c-58 0 -76 -12 -96 -65 -17 -44 -19 -45 -54 -39 -20 3 -67 -2 -105 -10 -93
-22 -172 -8 -187 32 -6 15 -8 37 -6 49 5 27 1 28 -47 8 -34 -15 -36 -17 -36
-64 l0 -48 -44 -5 c-53 -6 -188 -81 -201 -111 -8 -18 -31 -27 -112 -47 -56
-14 -104 -28 -107 -31 -3 -3 21 -17 54 -32 58 -24 60 -27 60 -62 0 -73 -6 -76
-140 -74 -146 3 -151 1 -148 -85 1 -34 -2 -67 -6 -74 -3 -6 0 -26 7 -45 12
-29 24 -36 78 -54 40 -13 68 -18 75 -12 6 5 35 13 64 19 61 12 120 52 120 81
0 36 19 57 65 75 31 11 47 24 51 40 9 37 26 45 67 33 31 -8 45 -6 83 11 64 28
79 26 109 -15 17 -22 53 -47 100 -69 70 -33 115 -74 115 -103 0 -8 5 -11 10
-8 6 3 10 22 10 41 0 24 5 34 15 34 30 0 13 19 -72 85 -90 68 -119 105 -84
105 28 0 175 -114 221 -173 23 -28 53 -73 66 -99 13 -27 30 -48 37 -48 7 0 29
12 50 26 l38 25 -21 26 c-11 14 -20 29 -20 34 0 5 19 18 41 30 48 24 58 17 59
-41 0 -46 6 -53 68 -84 50 -25 61 -27 163 -24 l109 3 0 -38 c0 -73 -76 -169
-120 -151 -52 21 -85 16 -139 -20 -67 -45 -74 -45 -31 -1 18 19 31 37 29 40
-3 2 -43 9 -90 16 -46 6 -101 13 -122 16 -31 4 -46 -1 -90 -31 -29 -20 -59
-36 -68 -36 -31 0 -248 95 -288 127 -3 2 5 10 17 19 29 20 28 55 -2 83 -24 22
-26 22 -157 13 -96 -8 -158 -18 -218 -37 -47 -15 -113 -31 -148 -36 -35 -5
-82 -18 -104 -29 -47 -25 -96 -89 -105 -139 -8 -45 -18 -58 -65 -81 -55 -28
-96 -75 -135 -151 -37 -75 -40 -93 -22 -168 10 -47 9 -56 -17 -120 -35 -88
-30 -131 22 -176 20 -16 90 -83 157 -147 67 -65 127 -118 132 -118 6 0 19 9
29 20 16 17 31 20 114 20 81 0 105 5 156 26 88 38 119 41 147 13 13 -13 30
-35 39 -49 16 -24 18 -24 62 -13 55 15 97 2 97 -30 0 -10 -10 -56 -22 -102
l-21 -83 66 -83 c37 -46 70 -95 72 -109 3 -14 14 -56 25 -95 17 -62 17 -72 4
-90 -67 -91 -66 -88 -62 -141 3 -34 20 -82 50 -145 52 -106 55 -115 68 -194 6
-39 22 -75 49 -117 37 -54 47 -78 65 -160 11 -48 33 -61 90 -53 28 4 80 9 116
11 35 3 84 14 109 25 61 27 198 171 212 224 16 59 22 68 63 90 l37 20 -6 80
c-8 95 0 110 84 153 77 39 92 64 104 171 10 90 10 90 -18 130 -22 32 -29 55
-32 108 l-5 68 80 91 c80 91 108 117 172 157 64 41 170 223 178 307 l4 49
-107 -35 c-146 -47 -175 -43 -189 27 -3 14 -30 53 -60 87 -71 80 -277 469
-255 483 37 23 57 3 121 -125 34 -68 77 -138 98 -161 45 -46 73 -105 90 -188
7 -37 18 -61 30 -67 22 -12 97 10 279 81 104 41 134 58 174 97 65 63 137 160
131 175 -2 7 -36 32 -74 56 l-70 43 -50 -31 c-28 -17 -54 -31 -59 -31 -9 0
-115 126 -146 174 -19 28 -19 29 4 47 29 24 38 24 45 1 9 -26 64 -76 111 -101
32 -17 50 -20 88 -15 45 6 50 4 78 -24 43 -43 115 -54 259 -37 l65 7 47 -41
c27 -24 49 -54 53 -70 10 -45 28 -55 64 -37 16 9 32 16 36 16 3 0 5 -24 5 -53
0 -68 22 -142 73 -242 22 -44 55 -113 72 -153 l33 -74 25 34 c36 47 65 119 73
181 10 82 26 108 112 186 115 105 139 119 219 135 l72 13 24 -26 c47 -52 68
-91 82 -157 7 -36 16 -68 19 -71 3 -3 25 11 49 31 24 20 47 36 50 36 3 0 8
-35 12 -77 7 -77 35 -163 53 -163 5 0 15 21 22 48 7 26 15 50 17 55 6 11 33
-11 98 -83 32 -36 64 -68 71 -73 8 -4 26 4 46 21 18 16 47 37 65 46 17 9 39
26 47 38 32 45 17 90 -59 179 -26 30 -53 66 -61 81 -13 25 -12 28 26 62 62 56
73 50 64 -34 -6 -61 -4 -70 11 -76 28 -11 57 33 51 77 -2 20 0 42 4 48 4 7 37
16 74 22 37 5 83 16 103 24 41 17 207 176 230 219 24 47 12 109 -36 176 l-40
58 29 12 c36 15 64 45 55 59 -3 6 -24 11 -47 11 -38 0 -98 30 -98 49 0 8 112
81 125 81 4 0 4 -16 1 -35 -4 -19 -5 -35 -2 -35 2 0 25 9 51 20 26 11 51 20
56 20 5 0 9 -23 9 -50 0 -48 1 -50 21 -40 15 9 24 8 35 -1 18 -15 18 -33 -1
-69 -14 -27 -14 -30 6 -44 28 -19 70 -5 92 33 23 39 21 57 -9 108 l-25 44 66
66 c64 64 66 65 107 59 46 -8 54 -4 164 85 71 58 89 85 146 214 12 28 13 24
18 -68 4 -83 8 -101 24 -113 29 -20 39 -17 32 10 -3 13 1 46 10 75 13 46 13
54 -1 85 -9 19 -15 45 -13 58 3 20 -3 24 -37 32 -22 4 -50 13 -62 18 -15 7
-31 7 -52 0 -36 -13 -61 -7 -61 14 0 10 -6 11 -25 4 -15 -6 -26 -6 -30 0 -6
10 121 97 205 141 42 22 56 24 200 23 85 0 172 -4 192 -8 34 -7 43 -4 115 46
62 44 127 78 148 78 1 0 5 -13 9 -30 6 -32 19 -36 62 -20 15 6 29 8 32 5 3 -2
-42 -26 -99 -53 -108 -50 -169 -102 -169 -143 0 -11 7 -42 16 -69 15 -45 15
-53 0 -96 -9 -26 -15 -49 -13 -50 1 -2 46 36 98 84 53 48 110 94 127 104 31
16 35 26 62 134 6 23 18 45 28 49 9 5 69 11 132 15 89 6 137 15 210 39 58 19
117 32 152 33 31 0 62 5 70 9 13 8 10 12 -46 52 -10 7 3 21 28 30 4 1 11 35
13 74 5 67 4 72 -18 84 -13 7 -67 16 -119 21 -52 4 -111 10 -130 14 -31 5 -38
2 -58 -26 l-24 -32 -25 24 c-24 22 -32 23 -166 23 -131 0 -146 2 -192 25 -46
23 -60 25 -165 22 -110 -2 -117 -1 -175 28 -49 24 -73 30 -128 30 -66 0 -128
17 -141 39 -4 6 11 15 39 22 25 6 47 15 50 19 16 27 -249 56 -280 30 -25 -21
-18 -27 37 -33 28 -4 56 -11 61 -16 10 -10 4 -46 -11 -69 -13 -20 -76 -31
-167 -32 -49 0 -96 -6 -122 -16 -51 -20 -64 -13 -82 46 -7 23 -19 44 -28 47
-9 3 -75 -2 -148 -12 -131 -18 -217 -16 -372 12 l-33 5 21 29 c11 17 19 36 16
43 -6 16 -75 26 -184 26 -52 0 -97 6 -120 15 -50 21 -109 17 -168 -10z m-2455
-570 c9 -11 10 -19 3 -26 -13 -13 -77 17 -68 31 10 15 51 12 65 -5z m758 -522
l36 -38 -75 -5 c-94 -6 -101 -22 -33 -84 46 -41 49 -47 64 -129 19 -98 20 -97
-73 -97 -57 0 -103 21 -113 52 -7 22 9 41 66 79 l25 17 -56 25 c-59 26 -95 65
-105 115 -8 38 18 57 95 72 29 5 60 14 69 20 33 19 64 11 100 -27z m-767 -25
c16 -18 29 -36 29 -40 0 -19 32 -5 75 32 44 38 75 51 75 31 0 -6 -4 -13 -10
-16 -18 -11 -10 -20 70 -70 76 -47 99 -73 85 -95 -9 -14 -81 -12 -172 5 -98
19 -127 19 -163 0 -16 -8 -56 -18 -89 -21 l-60 -7 -6 36 c-7 34 -3 41 55 107
35 38 67 70 72 70 5 0 22 -15 39 -32z m49 -1656 c-1 -9 -12 -30 -25 -47 -21
-25 -27 -28 -35 -15 -21 33 -9 75 25 82 26 6 35 1 35 -20z"/>
<path d="M8552 5339 c-73 -10 -149 -23 -170 -28 -47 -13 -180 -91 -210 -123
l-22 -25 78 -21 c90 -25 113 -27 129 -11 9 9 8 19 -3 41 -19 37 -11 48 64 85
49 24 70 28 176 31 97 3 127 8 153 23 17 11 34 26 37 34 7 20 -57 18 -232 -6z"/>
<path d="M2557 5333 c-4 -3 -7 -21 -7 -40 0 -38 18 -43 45 -13 21 23 54 25
101 8 25 -9 39 -9 59 0 31 14 33 38 3 46 -31 8 -193 8 -201 -1z"/>
<path d="M2888 5229 c-16 -11 -28 -24 -28 -28 0 -8 139 5 148 14 11 10 -33 34
-63 34 -16 0 -42 -9 -57 -20z"/>
<path d="M2680 5232 c-45 -9 -47 -36 -3 -40 20 -2 37 -12 47 -28 22 -32 46
-30 80 5 l28 29 -25 17 c-30 19 -79 26 -127 17z"/>
<path d="M5424 4958 c-3 -4 2 -20 10 -35 12 -24 26 -31 92 -46 79 -19 79 -19
134 3 94 37 119 60 83 76 -24 10 -313 12 -319 2z"/>
<path d="M6120 4689 c-8 -5 -27 -13 -42 -19 -49 -17 -38 -34 81 -128 l25 -19
-35 -31 -34 -30 24 -26 c22 -24 31 -26 95 -25 155 3 171 26 82 119 -31 32 -65
79 -75 104 -26 60 -76 83 -121 55z"/>
<path d="M5993 4564 c-41 -25 -43 -28 -43 -74 0 -56 11 -64 66 -49 76 21 106
85 61 127 -29 27 -32 27 -84 -4z"/>
<path d="M265 4505 l-40 -34 37 -1 c38 0 58 19 58 54 0 23 -10 20 -55 -19z"/>
<path d="M0 4471 c0 -13 27 -21 71 -21 28 0 39 4 39 15 0 12 -13 15 -55 15
-30 0 -55 -4 -55 -9z"/>
<path d="M11382 4167 c-37 -37 -42 -48 -42 -87 0 -129 -67 -194 -212 -206 -49
-4 -71 -12 -107 -37 -24 -18 -46 -37 -48 -42 -1 -6 6 -25 18 -44 l20 -34 27
25 c18 16 54 31 107 43 78 17 153 49 207 87 18 12 30 32 34 56 4 20 13 45 21
54 13 14 12 22 -6 63 -12 26 -21 49 -21 50 0 2 30 8 68 15 139 24 152 47 45
80 -36 11 -66 20 -67 20 -1 0 -21 -19 -44 -43z"/>
<path d="M6605 4050 c-9 -14 4 -50 18 -50 7 0 21 8 32 16 20 15 20 15 1 30
-23 16 -42 18 -51 4z"/>
<path d="M6760 3964 c0 -17 71 -55 91 -49 21 7 23 13 10 34 -10 15 -101 29
-101 15z"/>
<path d="M10644 3455 c-16 -24 -12 -65 7 -65 11 0 49 60 49 78 0 21 -39 13
-56 -13z"/>
<path d="M3311 3411 c-52 -14 -32 -28 47 -33 64 -4 91 -11 140 -36 61 -32 102
-41 102 -22 0 5 -41 30 -91 55 -92 45 -137 53 -198 36z"/>
<path d="M3693 3291 c-18 -12 -33 -25 -33 -29 0 -14 73 -32 129 -32 43 0 51 3
51 18 0 51 -92 77 -147 43z"/>
<path d="M10652 3217 c-23 -24 -42 -51 -42 -61 0 -10 17 -34 37 -52 l37 -34
-39 -40 c-21 -22 -35 -40 -31 -40 12 0 165 103 166 111 0 4 -22 9 -50 13 -27
4 -50 10 -50 14 0 4 11 24 25 44 30 44 31 64 7 77 -15 8 -27 2 -60 -32z"/>
<path d="M10800 3015 c-17 -32 -10 -39 23 -24 21 10 24 15 16 30 -13 25 -23
24 -39 -6z"/>
<path d="M10702 2968 c2 -18 11 -24 36 -26 19 -2 41 -1 50 3 14 5 13 9 -8 25
-14 11 -38 20 -53 20 -24 0 -28 -4 -25 -22z"/>
<path d="M9850 2931 c-10 -20 -9 -27 9 -50 12 -14 39 -63 61 -107 41 -85 95
-144 130 -144 29 0 25 21 -20 110 -25 51 -64 105 -104 147 -62 66 -63 67 -76
44z"/>
<path d="M9186 2887 c-11 -70 12 -98 48 -61 20 19 20 28 0 70 -22 47 -40 43
-48 -9z"/>
<path d="M10805 2910 c-11 -5 -34 -9 -50 -9 -32 -1 -75 -25 -75 -42 0 -5 12
-9 26 -9 15 0 44 -10 66 -22 36 -21 41 -21 66 -7 33 18 40 54 16 80 -19 21
-20 21 -49 9z"/>
<path d="M10497 2822 c-10 -10 -17 -23 -17 -29 0 -5 -45 -40 -99 -76 -70 -47
-105 -64 -120 -60 -18 5 -21 1 -21 -31 0 -104 68 -166 181 -166 l65 0 13 38
c7 20 26 56 42 79 33 47 36 71 13 115 -16 31 -16 32 10 54 31 28 32 34 5 34
-13 0 -23 10 -30 30 -13 35 -20 37 -42 12z"/>
<path d="M9740 2777 c0 -9 29 -40 64 -71 49 -43 71 -73 99 -130 30 -62 49 -85
113 -140 42 -36 80 -66 83 -66 9 0 31 83 31 115 0 25 3 23 -190 177 -116 93
-144 113 -177 123 -17 4 -23 2 -23 -8z"/>
<path d="M10914 2635 c-11 -17 -14 -34 -9 -52 l7 -28 24 28 c27 31 32 77 9 77
-8 0 -22 -11 -31 -25z"/>
<path d="M10765 2634 c-11 -2 -47 -6 -80 -10 l-60 -7 35 -14 c46 -20 116 -12
143 16 21 20 21 21 2 20 -11 -1 -29 -3 -40 -5z"/>
<path d="M11036 2571 c-23 -25 -21 -28 24 -36 44 -7 45 -9 25 -45 -8 -14 -14
-28 -15 -32 0 -3 24 -11 53 -17 96 -21 146 -42 173 -74 23 -28 24 -32 10 -43
-23 -16 -20 -22 13 -29 15 -3 41 -19 56 -35 37 -39 57 -38 86 4 26 39 63 60
84 49 8 -5 24 -24 37 -43 17 -25 37 -40 73 -52 28 -9 51 -15 53 -13 2 2 -6 21
-16 42 -35 67 -114 153 -189 203 -101 68 -164 89 -278 94 -60 2 -104 9 -118
18 -39 25 -55 27 -71 9z"/>
<path d="M10602 2521 c-22 -73 -15 -83 38 -56 28 15 29 14 47 -23 13 -27 25
-38 46 -40 35 -4 34 9 -4 65 -33 47 -29 62 14 63 9 0 17 4 17 9 0 13 -37 21
-96 21 -50 0 -51 0 -62 -39z"/>
<path d="M10113 2365 c-11 -30 26 -55 81 -55 28 0 73 -7 100 -15 27 -8 72 -15
99 -15 41 0 48 2 38 14 -25 30 -86 49 -161 51 -54 0 -83 6 -100 18 -30 21 -49
22 -57 2z"/>
<path d="M10786 2269 c-14 -17 -26 -35 -26 -40 0 -22 73 3 99 35 10 12 9 17
-8 25 -29 16 -37 14 -65 -20z"/>
<path d="M11421 2144 c-1 -29 -10 -81 -21 -117 l-21 -66 -46 20 c-93 40 -125
62 -120 84 20 87 21 84 -4 89 -13 3 -50 7 -81 9 -50 3 -59 1 -64 -16 -6 -18
-7 -18 -29 3 l-22 21 -12 -28 c-6 -16 -22 -42 -35 -58 l-24 -30 -40 23 c-22
12 -46 20 -54 17 -7 -3 -25 -23 -38 -45 -14 -22 -33 -43 -42 -46 -33 -10 -76
-54 -83 -84 -7 -33 -15 -36 -100 -45 -104 -12 -208 -81 -200 -134 25 -162 39
-205 94 -285 l20 -30 -25 -29 c-32 -38 -30 -48 10 -75 l34 -23 114 29 c104 26
118 33 150 68 31 33 42 38 84 41 27 1 70 8 95 14 56 14 79 9 142 -30 39 -25
47 -36 47 -61 0 -39 12 -38 64 5 49 40 56 42 49 16 -5 -19 20 -51 41 -51 21 0
49 -37 49 -65 0 -21 10 -33 45 -55 41 -26 53 -28 122 -26 63 3 87 9 131 32 51
27 57 35 108 136 54 105 55 109 53 187 -1 51 -9 98 -22 133 -22 61 -125 190
-169 212 -21 11 -31 28 -44 73 -11 40 -33 79 -70 124 -29 37 -60 77 -69 90
-17 24 -17 23 -17 -27z"/>
<path d="M8028 2092 c-25 -34 -53 -57 -93 -76 l-57 -27 7 -42 c4 -23 7 -51 6
-62 -7 -74 -2 -187 9 -200 7 -9 29 -15 51 -15 50 0 59 14 120 191 37 104 49
155 49 198 0 95 -36 108 -92 33z"/>
<path d="M12746 1989 c-14 -11 -26 -27 -26 -35 0 -12 8 -11 40 7 39 22 54 49
26 49 -7 0 -25 -9 -40 -21z"/>
<path d="M12230 1843 c0 -13 53 -63 67 -63 28 0 12 37 -22 53 -40 19 -45 20
-45 10z"/>
<path d="M12575 1310 c18 -76 18 -91 -5 -115 l-22 -24 41 -11 c36 -9 40 -13
31 -30 -13 -25 -13 -30 4 -30 17 0 108 109 100 121 -3 5 -19 9 -35 9 -19 0
-37 8 -49 23 -11 12 -31 36 -45 52 -26 29 -26 29 -20 5z"/>
<path d="M12435 1052 c-89 -63 -110 -82 -110 -102 0 -21 6 -26 40 -31 53 -9
71 -1 144 67 79 73 87 88 66 120 -8 13 -19 24 -23 24 -4 -1 -56 -36 -117 -78z"/>
<path d="M11578 1107 c-32 -5 -58 -12 -58 -16 0 -13 40 -71 49 -71 5 0 21 4
34 9 26 10 56 67 41 80 -5 4 -35 3 -66 -2z"/>
</g>
</svg>
